{"title":"Iggy Azalea Ft. Jennifer Hudson - Trouble [Music Video] 1080p [S","uid":11736480,"size":93806060,"categoryP":"video","categoryS":"music_videos","magnet":"?xt=urn:btih:5f8f13584cd85ea224c88671ce2b919b9f8153ff&amp;dn=Iggy+Azalea+Ft.+Jennifer+Hudson+-+Trouble+%5BMusic+Video%5D+1080p+%5BS&amp;tr=udp%3A%2F%2Ftracker.openbittorrent.com%3A80&amp;tr=udp%3A%2F%2Fopen.demonii.com%3A1337&amp;tr=udp%3A%2F%2Ftracker.coppersurfer.tk%3A6969&amp;tr=udp%3A%2F%2Fexodus.desync.com%3A6969","seeders":13,"leechers":1,"uploader":"Sbyky","files":1,"time":1425586088,"description":"General\nComplete name                            : Iggy Azalea Ft. Jennifer Hudson - Trouble [Music Video] 1080p [Sbyky].mp4\nFormat                                   : MPEG-4\nFormat profile                           : Base Media\nCodec ID                                 : isom\nFile size                                : 89.5 MiB\nDuration                                 : 3mn 0s\nOverall bit rate mode                    : Variable\nOverall bit rate                         : 4 151 Kbps\nEncoded date                             : UTC 2015-02-25 17:41:04\nTagged date                              : UTC 2015-02-25 17:41:04\n\nVideo\nID                                       : 1\nFormat                                   : AVC\nFormat/Info                              : Advanced Video Codec\nFormat profile                           : &lt;a class=&quot;__cf_email__&quot; href=&quot;/cdn-cgi/l/email-protection&quot; data-cfemail=&quot;064e6f616e464a322836&quot;&gt;[email&amp;#160;protected]&lt;/a&gt;&lt;script cf-hash='f9e31' type=&quot;text/javascript&quot;&gt;\n/* &lt;![CDATA[ */!function(){try{var t=&quot;currentScript&quot;in document?document.currentScript:function(){for(var t=document.getElementsByTagName(&quot;script&quot;),e=t.length;e--;)if(t[e].getAttribute(&quot;cf-hash&quot;))return t[e]}();if(t&amp;&amp;t.previousSibling){var e,r,n,i,c=t.previousSibling,a=c.getAttribute(&quot;data-cfemail&quot;);if(a){for(e=&quot;&quot;,r=parseInt(a.substr(0,2),16),n=2;a.length-n;n+=2)i=parseInt(a.substr(n,2),16)^r,e+=String.fromCharCode(i);e=document.createTextNode(e),c.parentNode.replaceChild(e,c)}}}catch(u){}}();/* ]]&gt; */&lt;/script&gt;\nFormat settings, CABAC                   : Yes\nFormat settings, ReFrames                : 2 frames\nCodec ID                                 : avc1\nCodec ID/Info                            : Advanced Video Coding\nDuration                                 : 3mn 0s\nBit rate                                 : 4 021 Kbps\nWidth                                    : 1 920 pixels\nHeight                                   : 1 080 pixels\nDisplay aspect ratio                     : 16:9\nFrame rate mode                          : Variable\nFrame rate                               : 23.976 fps\nMinimum frame rate                       : 23.974 fps\nMaximum frame rate                       : 23.981 fps\nColor space                              : YUV\nChroma subsampling                       : 4:2:0\nBit depth                                : 8 bits\nScan type                                : Progressive\nBits/(Pixel*Frame)                       : 0.081\nStream size                              : 86.7 MiB (97%)\nEncoded date                             : UTC 2015-02-25 17:41:04\nTagged date                              : UTC 2015-02-25 17:41:04\n\nAudio\nID                                       : 2\nFormat                                   : AAC\nFormat/Info                              : Advanced Audio Codec\nFormat profile                           : LC\nCodec ID                                 : 40\nDuration                                 : 3mn 0s\nBit rate mode                            : Variable\nBit rate                                 : 126 Kbps\nChannel(s)                               : 2 channels\nChannel positions                        : Front: L R\nSampling rate                            : 44.1 KHz\nCompression mode                         : Lossy\nStream size                              : 2.71 MiB (3%)\nEncoded date                             : UTC 2015-02-25 17:28:45\nTagged date                              : UTC 2015-02-25 17:28:45\n\nShared By Sbyky","torrent":{"xt":"urn:btih:5f8f13584cd85ea224c88671ce2b919b9f8153ff","amp;dn":"Iggy+Azalea+Ft.+Jennifer+Hudson+-+Trouble+%5BMusic+Video%5D+1080p+%5BS","amp;tr":["udp%3A%2F%2Ftracker.openbittorrent.com%3A80","udp%3A%2F%2Fopen.demonii.com%3A1337","udp%3A%2F%2Ftracker.coppersurfer.tk%3A6969","udp%3A%2F%2Fexodus.desync.com%3A6969"],"infoHash":"5f8f13584cd85ea224c88671ce2b919b9f8153ff","infoHashBuffer":{"type":"Buffer","data":[95,143,19,88,76,216,94,162,36,200,134,113,206,43,145,155,159,129,83,255]},"announce":[],"urlList":[]}}